# xmcd CD database file
#
# Track frame offsets:
#	150
#	19805
#	35767
#	53095
#	69285
#	86347
#	105207
#	130110
#	153680
#
# Disc length: 2370 seconds
#
# Revision: 1
# Processed by: cddbd v1.4PL0 Copyright (c) Steve Scherf et al.
# Submitted via: CDex 1.40Beta8
#
DISCID=68094009
DTITLE=Houndog - Houndog
DYEAR=1999
DGENRE=Blues
TTITLE0=No Chance
TTITLE1=I Brought The Rain
TTITLE2=I'll Change My Style
TTITLE3=Down Time
TTITLE4=Lonely Dying Love
TTITLE5=Eddie's Gone
TTITLE6=All Fired Up, All Shook Down
TTITLE7=Somebody (Stop The Bleedin')
TTITLE8=Killin' Me
EXTD=YEAR: 1999 ID3G: 0
EXTT0=
EXTT1=
EXTT2=
EXTT3=
EXTT4=
EXTT5=
EXTT6=
EXTT7=
EXTT8=
PLAYORDER=
